<svg xmlns="http://www.w3.org/2000/svg" viewBox="0 0 106.24 119.07"><defs><style>.cls-1,.cls-2,.cls-3,.cls-4{fill:none;stroke:#fff;stroke-linejoin:round;}.cls-1,.cls-3{stroke-width:8px;}.cls-2,.cls-4{stroke-width:5px;}.cls-3,.cls-4{stroke-linecap:round;}</style></defs><g id="Layer_2" data-name="Layer 2"><g id="Layer_1-2" data-name="Layer 1"><g id="Layer_2-2" data-name="Layer 2"><g id="Layer_1-2-2" data-name="Layer 1-2"><path class="cls-1" d="M89,92.07v23H12.46A8.45,8.45,0,0,1,4,106.65v-92"/><line class="cls-1" x1="88.96" y1="23.67" x2="88.96" y2="44.19"/><line class="cls-2" x1="14.8" y1="27.27" x2="14.8" y2="115.11"/><path class="cls-1" d="M89,25.33H17C9.84,25.33,4,21,4,15.61v-1.8C4,8.45,9.84,4.09,17,4.09H89"/><path class="cls-3" d="M89,4a9.44,9.44,0,0,0-9.17,9.72v1.8A9.44,9.44,0,0,0,89,25.24"/><line class="cls-4" x1="76.36" y1="14.71" x2="31.36" y2="14.71"/><rect class="cls-1" x="46.83" y="50.31" width="55.41" height="34.2"/></g></g></g></g></svg>