<svg xmlns="http://www.w3.org/2000/svg" viewBox="0 0 52.87 61.84"><defs><style>.cls-1,.cls-10,.cls-2,.cls-3,.cls-4,.cls-6,.cls-7,.cls-8,.cls-9{fill:none;stroke:#fff;}.cls-1{stroke-miterlimit:10;}.cls-1,.cls-10,.cls-8,.cls-9{stroke-width:3px;}.cls-2,.cls-8{stroke-linecap:square;}.cls-10,.cls-2,.cls-3,.cls-4,.cls-6,.cls-7,.cls-8,.cls-9{stroke-linejoin:round;}.cls-2{stroke-width:2px;}.cls-3,.cls-4,.cls-6,.cls-9{stroke-linecap:round;}.cls-3,.cls-4,.cls-6,.cls-7{stroke-width:1.5px;}.cls-3{opacity:0.8;}.cls-4,.cls-5{opacity:0.85;}</style></defs><g id="Layer_2" data-name="Layer 2"><g id="Layer_1-2" data-name="Layer 1"><path class="cls-1" d="M44,35.71V8a3.6,3.6,0,0,0-3.6-3.6H37.14"/><path class="cls-1" d="M8.34,4.39H5.1A3.6,3.6,0,0,0,1.5,8V50.71a3.6,3.6,0,0,0,3.6,3.6H27.34"/><path class="cls-2" d="M37.14,5.56c0,5.28-28.8,5.76-28.8,0V1h28.8Z"/><line class="cls-3" x1="22.74" y1="16.15" x2="38.22" y2="16.15"/><line class="cls-4" x1="22.74" y1="18.91" x2="38.22" y2="18.91"/><line class="cls-4" x1="22.74" y1="21.67" x2="38.22" y2="21.67"/><line class="cls-3" x1="22.92" y1="27.49" x2="38.4" y2="27.49"/><line class="cls-4" x1="22.92" y1="30.25" x2="38.4" y2="30.25"/><line class="cls-4" x1="22.92" y1="33.01" x2="38.4" y2="33.01"/><line class="cls-3" x1="22.8" y1="38.83" x2="28.43" y2="38.83"/><line class="cls-4" x1="22.8" y1="41.59" x2="26.62" y2="41.59"/><line class="cls-4" x1="22.8" y1="44.35" x2="25.63" y2="44.35"/><line class="cls-4" x1="6.08" y1="18.45" x2="9.49" y2="21.86"/><g class="cls-5"><line class="cls-6" x1="13.06" y1="18.29" x2="15.2" y2="16.15"/><line class="cls-7" x1="9.44" y1="21.91" x2="13.06" y2="18.29"/></g><g class="cls-5"><line class="cls-6" x1="14.01" y1="27.33" x2="8.17" y2="33.17"/><line class="cls-6" x1="14.01" y1="33.17" x2="8.17" y2="27.33"/></g><g class="cls-5"><line class="cls-6" x1="14.01" y1="38.67" x2="8.17" y2="44.51"/><line class="cls-6" x1="14.01" y1="44.51" x2="8.17" y2="38.67"/></g><circle class="cls-8" cx="38.33" cy="47.3" r="13.04"/><line class="cls-9" x1="34.25" y1="46.78" x2="37.31" y2="49.83"/><line class="cls-9" x1="40.5" y1="46.64" x2="42.42" y2="44.72"/><line class="cls-10" x1="37.26" y1="49.88" x2="40.5" y2="46.64"/></g></g></svg>