<svg xmlns="http://www.w3.org/2000/svg" viewBox="0 0 45.48 55.81"><defs><style>.cls-1,.cls-2,.cls-3,.cls-4{fill:none;stroke:#fff;}.cls-1{stroke-miterlimit:10;stroke-width:3px;}.cls-2{stroke-linecap:square;stroke-width:2px;}.cls-2,.cls-3,.cls-4{stroke-linejoin:round;}.cls-3,.cls-4{stroke-linecap:round;stroke-width:1.5px;}.cls-3{opacity:0.8;}.cls-4{opacity:0.85;}</style></defs><g id="Layer_2" data-name="Layer 2"><g id="Layer_1-2" data-name="Layer 1"><path class="cls-1" d="M8.34,4.39H5.1A3.6,3.6,0,0,0,1.5,8V50.71a3.6,3.6,0,0,0,3.6,3.6H40.38a3.6,3.6,0,0,0,3.6-3.6V8a3.6,3.6,0,0,0-3.6-3.6H37.14"/><path class="cls-2" d="M37.14,5.56c0,5.28-28.8,5.76-28.8,0V1h28.8Z"/><line class="cls-3" x1="22.74" y1="16.15" x2="38.22" y2="16.15"/><line class="cls-4" x1="22.74" y1="18.91" x2="38.22" y2="18.91"/><line class="cls-4" x1="22.74" y1="21.67" x2="38.22" y2="21.67"/><line class="cls-3" x1="22.92" y1="27.49" x2="38.4" y2="27.49"/><line class="cls-4" x1="22.92" y1="30.25" x2="38.4" y2="30.25"/><line class="cls-4" x1="22.92" y1="33.01" x2="38.4" y2="33.01"/><line class="cls-3" x1="22.8" y1="38.83" x2="38.28" y2="38.83"/><line class="cls-4" x1="22.8" y1="41.59" x2="38.28" y2="41.59"/><line class="cls-4" x1="22.8" y1="44.35" x2="38.28" y2="44.35"/><rect class="cls-4" x="8.34" y="16.15" width="7.48" height="5.52"/><rect class="cls-4" x="8.34" y="27.49" width="7.48" height="5.52"/><rect class="cls-4" x="8.34" y="38.83" width="7.48" height="5.52"/></g></g></svg>