<svg xmlns="http://www.w3.org/2000/svg" viewBox="0 0 980.39 996.44"><defs><style>.cls-1{fill:#fff;}</style></defs><g id="Layer_2" data-name="Layer 2"><g id="Layer_1-2" data-name="Layer 1"><g id="Layer_2-2" data-name="Layer 2"><g id="Layer_1-2-2" data-name="Layer 1-2"><path class="cls-1" d="M900.3,531.6a267.14,267.14,0,0,0-20.2-18.3V43.6A43.7,43.7,0,0,0,836.5,0H43.6A43.57,43.57,0,0,0,0,43.54V872a43.7,43.7,0,0,0,43.6,43.6H512.5v-2.4c1,1,2,2.1,3,3.1,106,106.5,278.25,106.9,384.75.91s106.9-278.25.91-384.75ZM43.6,881.9a9.92,9.92,0,0,1-9.9-9.9V43.6a9.92,9.92,0,0,1,9.9-9.9H836.5a9.85,9.85,0,0,1,9.9,9.82V489.7a272.4,272.4,0,0,0-310.1,23.1H250.5v33.7H501.7a269.53,269.53,0,0,0-60.5,123.7H250.5V704H436.6c-.5,6.6-.7,13.3-.7,20a270,270,0,0,0,50.5,157.9Zm664.3,80.4c-131.4,0-238.3-106.9-238.3-238.3S576.5,485.7,707.9,485.7,946.2,592.6,946.2,724,839.4,962.3,707.9,962.3Z"/><path class="cls-1" d="M853.2,646.3,696.6,798.2l-96.7-81.6-21.7,25.8,120,101.2L876.7,670.5Z"/><path class="cls-1" d="M135.4,198h81.3v33.7H135.4Z"/><path class="cls-1" d="M250.5,198H753.3v33.7H250.5Z"/><path class="cls-1" d="M135.4,355.4h81.3v33.7H135.4Z"/><path class="cls-1" d="M250.5,355.4H753.3v33.7H250.5Z"/><path class="cls-1" d="M135.4,512.9h81.3v33.7H135.4Z"/><path class="cls-1" d="M135.4,670.3h81.3V704H135.4Z"/></g></g></g></g></svg>