<svg xmlns="http://www.w3.org/2000/svg" viewBox="0 0 844.84 925.09"><defs><style>.cls-1{fill:#fff;}.cls-2{fill:#fcfcfc;}.cls-3{fill:none;stroke:#fff;stroke-miterlimit:10;stroke-width:37px;}</style></defs><g id="Layer_2" data-name="Layer 2"><g id="Layer_1-2" data-name="Layer 1"><path class="cls-1" d="M97.18,164.85h81.3v33.7H97.18Z"/><path class="cls-2" d="M212.28,164.85h502.8v33.7H212.28Z"/><path class="cls-1" d="M97.18,322.25h81.3V356H97.18Z"/><path class="cls-1" d="M212.28,322.25h502.8V356H212.28V322.25Z"/><path class="cls-1" d="M97.18,479.75h81.3v33.7H97.18Z"/><path class="cls-1" d="M97.18,637.15h81.3v33.7H97.18Z"/><path class="cls-3" d="M675.14,906.26H72.5a54,54,0,0,1-54-54V72.5a54,54,0,0,1,54-54H772.34a54,54,0,0,1,54,54V731.3"/><path class="cls-1" d="M216.6,480.83H719.4v33.7H216.6v-33.7Z"/><path class="cls-1" d="M216.6,639.31H719.4V673H216.6V639.3Z"/><path class="cls-1" d="M674.24,780.7V925.09L844.54,731.3H723.64a49.4,49.4,0,0,0-49.4,49.4Z"/></g></g></svg>