<svg xmlns="http://www.w3.org/2000/svg" viewBox="0 0 199.45 169.36"><defs><style>.cls-1,.cls-2,.cls-3,.cls-4,.cls-5{fill:none;stroke:#fff;}.cls-1,.cls-2,.cls-3{stroke-miterlimit:10;}.cls-1{stroke-width:7px;}.cls-2,.cls-3,.cls-4,.cls-5{stroke-linecap:round;}.cls-2{stroke-width:8px;}.cls-3,.cls-4{stroke-width:10px;}.cls-4{stroke-linejoin:round;}.cls-5{stroke-miterlimit:10;stroke-width:10px;}</style></defs><g id="Layer_2" data-name="Layer 2"><g id="Layer_1-2" data-name="Layer 1"><g id="Layer_2-2" data-name="Layer 2"><g id="Layer_1-2-2" data-name="Layer 1-2"><path class="cls-1" d="M143.05,129.27v22.37a14.22,14.22,0,0,1-14.22,14.22H32.35a14.22,14.22,0,0,1-14.22-14.22h0V17.72A14.22,14.22,0,0,1,32.35,3.5h96.48a14.22,14.22,0,0,1,14.22,14.22h0V95.3"/><line class="cls-2" x1="4" y1="32.66" x2="37.66" y2="32.66"/><line class="cls-2" x1="4" y1="84.68" x2="37.66" y2="84.68"/><line class="cls-2" x1="4" y1="58.67" x2="37.66" y2="58.67"/><line class="cls-2" x1="4" y1="110.69" x2="37.66" y2="110.69"/><line class="cls-2" x1="4" y1="136.7" x2="37.66" y2="136.7"/><line class="cls-3" x1="59.89" y1="45.44" x2="117.4" y2="45.44"/><line class="cls-3" x1="59.89" y1="72.08" x2="117.4" y2="72.08"/><line class="cls-3" x1="59.89" y1="98.72" x2="117.4" y2="98.72"/><polyline class="cls-3" points="126.42 115.21 168.89 72.73 184.63 88.48 142.16 130.95"/><polyline class="cls-4" points="126.44 115.22 114.68 142.65 142.15 131"/><path class="cls-5" d="M190.44,66.63l1.17,1.17a9.67,9.67,0,0,1,0,13.7h0l-5.7,5.71a.25.25,0,0,1-.36,0L170.18,71.84a.25.25,0,0,1,0-.36L175,66.64A10.91,10.91,0,0,1,190.44,66.63Z"/></g></g></g></g></svg>