<svg xmlns="http://www.w3.org/2000/svg" viewBox="0 0 146.55 169.36"><defs><style>.cls-1,.cls-2,.cls-3,.cls-4,.cls-5{fill:none;stroke:#fff;stroke-miterlimit:10;}.cls-1,.cls-4{stroke-width:7px;}.cls-2,.cls-3,.cls-4,.cls-5{stroke-linecap:round;}.cls-2{stroke-width:8px;}.cls-3{stroke-width:10px;}.cls-5{stroke-width:5px;}</style></defs><g id="Layer_2" data-name="Layer 2"><g id="Layer_1-2" data-name="Layer 1"><g id="Layer_2-2" data-name="Layer 2"><g id="Layer_1-2-2" data-name="Layer 1-2"><path class="cls-1" d="M143.05,129.27v22.37a14.22,14.22,0,0,1-14.22,14.22H32.35a14.22,14.22,0,0,1-14.22-14.22h0V17.72A14.22,14.22,0,0,1,32.35,3.5h96.48a14.22,14.22,0,0,1,14.22,14.22h0V95.3"/><line class="cls-2" x1="4" y1="32.66" x2="37.66" y2="32.66"/><line class="cls-2" x1="4" y1="84.68" x2="37.66" y2="84.68"/><line class="cls-2" x1="4" y1="58.67" x2="37.66" y2="58.67"/><line class="cls-2" x1="4" y1="110.69" x2="37.66" y2="110.69"/><line class="cls-2" x1="4" y1="136.7" x2="37.66" y2="136.7"/><line class="cls-3" x1="50.84" y1="45.44" x2="91.52" y2="45.44"/><line class="cls-3" x1="50.84" y1="72.08" x2="91.52" y2="72.08"/><line class="cls-3" x1="50.84" y1="98.46" x2="91.52" y2="98.46"/><line class="cls-4" x1="143.05" y1="95.3" x2="143.05" y2="129.27"/><line class="cls-5" x1="110.37" y1="41.25" x2="116.12" y2="50.28"/><line class="cls-5" x1="127.82" y1="37.5" x2="116.12" y2="50.28"/><line class="cls-5" x1="113.32" y1="89.73" x2="126.11" y2="102.52"/><line class="cls-5" x1="126.11" y1="89.73" x2="113.32" y2="102.52"/><line class="cls-5" x1="110.79" y1="66.13" x2="116.54" y2="75.15"/><line class="cls-5" x1="128.24" y1="62.37" x2="116.54" y2="75.15"/><line class="cls-3" x1="50.71" y1="124.84" x2="91.39" y2="124.84"/><line class="cls-5" x1="110.55" y1="119.46" x2="116.29" y2="128.49"/><line class="cls-5" x1="127.99" y1="115.71" x2="116.29" y2="128.49"/></g></g></g></g></svg>