<svg xmlns="http://www.w3.org/2000/svg" xmlns:xlink="http://www.w3.org/1999/xlink" version="1.1" style="" xml:space="preserve" width="493.796" height="493.796"><rect id="backgroundrect" width="100%" height="100%" x="0" y="0" fill="none" stroke="none"/>

















<g class="currentLayer" style=""><title>Layer 1</title><g id="svg_1" class="" fill="#ffffff" fill-opacity="1">
	<g id="svg_2" fill="#ffffff" fill-opacity="1">
		<path d="M355.938,200.956L81.414,12.128c-11.28-7.776-23.012-11.88-33.056-11.88c-22.052,0-36.672,18.496-36.672,48.26v397.036    c0,14.54,4.228,26.688,10.496,35.144c6.364,8.572,16.32,13.108,27.076,13.108c10.04,0,21.308-4.112,32.584-11.876l274.276-188.828    c17.632-12.152,27.3-28.508,27.296-46.076C383.414,229.456,373.594,213.1,355.938,200.956z" id="svg_3" fill="#ffffff" fill-opacity="1"/>
	</g>
</g><g class="" fill="#ffffff" fill-opacity="1" id="svg_28">
	<g id="svg_30" fill="#ffffff" fill-opacity="1">
		<path d="M355.938,200.956L81.414,12.128c-11.28-7.776-23.012-11.88-33.056-11.88c-22.052,0-36.672,18.496-36.672,48.26v397.036    c0,14.54,4.228,26.688,10.496,35.144c6.364,8.572,16.32,13.108,27.076,13.108c10.04,0,21.308-4.112,32.584-11.876l274.276-188.828    c17.632-12.152,27.3-28.508,27.296-46.076C383.414,229.456,373.594,213.1,355.938,200.956z" id="svg_3" fill="#ffffff" fill-opacity="1"/>
	</g>
</g><g id="svg_4" class="" fill="#ffffff" fill-opacity="1">
	<g id="svg_5" fill="#ffffff" fill-opacity="1">
		<g id="svg_6" fill="#ffffff" fill-opacity="1">
			<path d="M456.446,493.672l-0.293-0.004c-0.048,0-0.095,0.004-0.143,0.004H456.446z" id="svg_7" fill="#ffffff" fill-opacity="1"/>
			<path d="M455.638,0L444.29,0.032c-14.86,0-27.724,12.112-27.724,26.992v439.368c0,14.896,12.652,27.124,27.532,27.124     l12.055,0.152c14.805-0.079,25.957-12.412,25.957-27.252V26.996C482.11,12.116,470.51,0,455.638,0z" id="svg_8" fill="#ffffff" fill-opacity="1"/>
		</g>
	</g>
</g><g class="" fill="#ffffff" fill-opacity="1" id="svg_24">
	<g id="svg_26" fill="#ffffff" fill-opacity="1">
		<g id="svg_6" fill="#ffffff" fill-opacity="1">
			<path d="M456.446,493.672l-0.293-0.004c-0.048,0-0.095,0.004-0.143,0.004H456.446z" id="svg_7" fill="#ffffff" fill-opacity="1"/>
			<path d="M455.638,0L444.29,0.032c-14.86,0-27.724,12.112-27.724,26.992v439.368c0,14.896,12.652,27.124,27.532,27.124     l12.055,0.152c14.805-0.079,25.957-12.412,25.957-27.252V26.996C482.11,12.116,470.51,0,455.638,0z" id="svg_8" fill="#ffffff" fill-opacity="1"/>
		</g>
	</g>
</g><g class="" fill="#ffffff" fill-opacity="1" id="svg_32">
	<g id="svg_34" fill="#ffffff" fill-opacity="1">
		<g id="svg_6" fill="#ffffff" fill-opacity="1">
			<path d="M456.446,493.672l-0.293-0.004c-0.048,0-0.095,0.004-0.143,0.004H456.446z" id="svg_7" fill="#ffffff" fill-opacity="1"/>
			<path d="M455.638,0L444.29,0.032c-14.86,0-27.724,12.112-27.724,26.992v439.368c0,14.896,12.652,27.124,27.532,27.124     l12.055,0.152c14.805-0.079,25.957-12.412,25.957-27.252V26.996C482.11,12.116,470.51,0,455.638,0z" id="svg_8" fill="#ffffff" fill-opacity="1"/>
		</g>
	</g>
</g><g id="svg_9">
</g><g id="svg_10">
</g><g id="svg_11">
</g><g id="svg_12">
</g><g id="svg_13">
</g><g id="svg_14">
</g><g id="svg_15">
</g><g id="svg_16">
</g><g id="svg_17">
</g><g id="svg_18">
</g><g id="svg_19">
</g><g id="svg_20">
</g><g id="svg_21">
</g><g id="svg_22">
</g><g id="svg_23">
</g></g></svg>