<svg xmlns="http://www.w3.org/2000/svg" viewBox="0 0 31.77 19.77"><defs><style>.cls-1,.cls-5{fill:#3fa9f5;}.cls-1,.cls-2,.cls-6,.cls-8{stroke:#3fa9f5;stroke-miterlimit:10;}.cls-1,.cls-2{stroke-width:0.75px;}.cls-2,.cls-6,.cls-7,.cls-8{fill:none;}.cls-3{fill:#fff;}.cls-4{fill:#333;}.cls-6{stroke-width:0.5px;}.cls-8{stroke-width:0.2px;}</style></defs><g id="Layer_2" data-name="Layer 2"><g id="Layer_1-2" data-name="Layer 1"><path class="cls-1" d="M28.32.38H3.46a1,1,0,0,0-1,1H29.34A1,1,0,0,0,28.32.38Zm-12.43.79a.27.27,0,0,1-.27-.26.27.27,0,1,1,.53,0A.27.27,0,0,1,15.89,1.17Z"/><polygon class="cls-2" points="29.34 1.43 29.34 17.64 29.12 17.64 29.12 17.23 2.66 17.23 2.66 17.64 2.43 17.64 2.43 1.43 29.34 1.43"/><path class="cls-3" d="M16.15.91a.27.27,0,0,1-.53,0,.27.27,0,1,1,.53,0Z"/><path class="cls-4" d="M2.17,19.76h0Z"/><path class="cls-4" d="M29.6,19.76h0Z"/><path class="cls-5" d="M31.77,17.75v.68a.73.73,0,0,1-.54.69,6.37,6.37,0,0,1-1.63.22H2.17a6.37,6.37,0,0,1-1.63-.22A.73.73,0,0,1,0,18.43v-.68H2.17v-.17h.49v-.35H29.12v.35h.48v.17Z"/><path class="cls-3" d="M21,17.9a1.31,1.31,0,0,1-.94.39H11.76a1.31,1.31,0,0,1-.94-.39Z"/><path class="cls-5" d="M24.5,8l-4,2.17a11,11,0,0,0-4.37-1.1h0a10.77,10.77,0,0,0-4.57,1.11L7.44,8,16,3.56Z"/><ellipse class="cls-6" cx="15.99" cy="13.13" rx="4.79" ry="1.37"/><line class="cls-7" x1="16" y1="9.49" x2="16" y2="9.36"/><path class="cls-5" d="M21,10.61l0,2.53c-.88-.75-3-1.18-5-1.17s-4.15.49-5,1.25l0-2.53a5.16,5.16,0,0,1,1.8-.84A14,14,0,0,1,16,9.42a14.53,14.53,0,0,1,3.12.35A4.84,4.84,0,0,1,21,10.61Z"/><line class="cls-8" x1="23.31" y1="8.3" x2="23.3" y2="10.96"/><circle class="cls-5" cx="23.3" cy="10.78" r="0.36"/><polygon class="cls-5" points="24.25 12.75 22.35 12.75 22.94 10.78 23.66 10.78 24.25 12.75"/><circle class="cls-5" cx="23.49" cy="12.78" r="0.35"/><ellipse class="cls-5" cx="23.97" cy="12.75" rx="0.26" ry="0.16"/><circle class="cls-5" cx="22.97" cy="12.82" r="0.31"/><circle class="cls-5" cx="22.55" cy="12.78" r="0.18"/></g></g></svg>