<?xml version="1.0" encoding="utf-8"?>
<!-- Generator: Adobe Illustrator 24.2.1, SVG Export Plug-In . SVG Version: 6.00 Build 0)  -->
<svg version="1.1" id="Layer_1" xmlns="http://www.w3.org/2000/svg" xmlns:xlink="http://www.w3.org/1999/xlink" x="0px" y="0px"
	 viewBox="0 0 31.8 19.3" style="enable-background:new 0 0 31.8 19.3;" xml:space="preserve">
<style type="text/css">
	.st0{fill:#0A0C14;stroke:#0A0C14;stroke-width:0.75;stroke-miterlimit:10;}
	.st1{fill:#F2F2F2;stroke:#0A0C14;stroke-width:0.75;stroke-miterlimit:10;}
	.st2{fill:#FFFFFF;}
	.st3{fill:#0A0C14;}
	.st4{fill:none;}
	.st5{fill:none;stroke:#0A0C14;stroke-width:0.5;stroke-miterlimit:10;}
	.st6{fill:none;stroke:#0A0C14;stroke-width:0.2;stroke-miterlimit:10;}
</style>
<path class="st0" d="M28.3,0.4H3.5c-0.6,0-1,0.4-1,1h26.9C29.3,0.8,28.9,0.4,28.3,0.4C28.3,0.4,28.3,0.4,28.3,0.4z M15.9,1.2
	c-0.1,0-0.3-0.1-0.3-0.3c0-0.1,0.1-0.3,0.2-0.3c0.1,0,0.3,0.1,0.3,0.2c0,0,0,0.1,0,0.1C16.1,1,16,1.2,15.9,1.2z"/>
<polygon class="st1" points="29.3,1.4 29.3,17.6 29.1,17.6 29.1,17.2 2.7,17.2 2.7,17.6 2.4,17.6 2.4,1.4 "/>
<path class="st2" d="M16.1,0.9c0,0.1-0.2,0.2-0.3,0.2c0,0,0,0,0,0c-0.1,0-0.2-0.1-0.2-0.2c0-0.1,0.1-0.3,0.2-0.3s0.3,0.1,0.3,0.2
	l0,0C16.2,0.8,16.2,0.9,16.1,0.9z"/>
<path class="st3" d="M31.8,17.8v0.7c0,0.3-0.2,0.6-0.5,0.7c-0.5,0.1-1.1,0.2-1.6,0.2H2.2c-0.6,0-1.1-0.1-1.6-0.2
	C0.2,19,0,18.8,0,18.4v-0.7h2.2v-0.2h0.5v-0.4h26.5v0.4h0.5v0.2H31.8z"/>
<path class="st2" d="M21,17.9c-0.2,0.2-0.6,0.4-0.9,0.4h-8.3c-0.4,0-0.7-0.1-0.9-0.4H21z"/>
<path class="st3" d="M24.5,8l-4,2.2c-1.4-0.7-2.9-1-4.4-1.1l0,0c-1.6,0-3.2,0.4-4.6,1.1L7.4,8L16,3.6L24.5,8z"/>
<line class="st4" x1="16" y1="9.5" x2="16" y2="9.4"/>
<ellipse class="st5" cx="16" cy="13.5" rx="4.8" ry="1.4"/>
<path class="st3" d="M21,10.9v2.5c-0.9-0.8-3-1.2-5-1.2s-4.1,0.5-5,1.3V11c0.5-0.4,1.1-0.7,1.8-0.8c1-0.3,2.1-0.4,3.2-0.4
	c1,0,2.1,0.1,3.1,0.3C19.8,10.2,20.4,10.5,21,10.9z"/>
<line class="st6" x1="23.1" y1="9" x2="23.1" y2="11.6"/>
<circle class="st3" cx="23.1" cy="11.5" r="0.4"/>
<polygon class="st3" points="24.1,13.4 22.2,13.4 22.8,11.5 23.5,11.5 "/>
<circle class="st3" cx="23.3" cy="13.5" r="0.4"/>
<ellipse class="st3" cx="23.8" cy="13.4" rx="0.3" ry="0.2"/>
<circle class="st3" cx="22.8" cy="13.5" r="0.3"/>
<circle class="st3" cx="22.4" cy="13.5" r="0.2"/>
</svg>
