<svg xmlns="http://www.w3.org/2000/svg" viewBox="0 0 980 913.2"><defs><style>.cls-1{fill:#fff;}</style></defs><g id="Layer_2" data-name="Layer 2"><g id="Layer_1-2" data-name="Layer 1"><path class="cls-1" d="M106.8,787.93A47.8,47.8,0,0,1,59,740.13V244.83A47.8,47.8,0,0,1,106.8,197H838a47.8,47.8,0,0,1,47.8,47.8v110a349.4,349.4,0,0,1,58.8,45.8v-217c0-71.8-65.4-65.2-65.4-65.2s-390.7.4-370.1,0c-22.4.6-33.4-11.8-33.4-11.8s-15.6-26.8-43.6-69C402.7-6.77,368.9.43,368.9.43H80.8C1,.53,0,77.33,0,77.33v693.9c0,85.6,64.6,75,64.6,75H422.3a348.4,348.4,0,0,1-33-58.4l-282.5.1Zm870.8-171.4c-2.2-12-13.8-24.2-25.8-27l-9-2a89.42,89.42,0,0,1-61.2-106.4h0l2.8-8.4c3.6-11.6-1-27.8-10.4-35.8,0,0-8.4-7.2-32.2-20.8s-34-17.4-34-17.4c-11.6-4.2-27.8-.2-36.2,8.8l-6.2,6.8a89.44,89.44,0,0,1-123-.2l-6-6.4c-8.4-9-24.6-13-36.2-8.8,0,0-10.4,3.8-34.2,17.4-23.8,13.8-32.2,21-32.2,21-9.4,7.8-14,23.8-10.4,35.6l2.6,8.6a89.66,89.66,0,0,1-9.6,65.6,88.53,88.53,0,0,1-52,41l-8.6,2c-11.8,2.8-23.6,14.8-25.8,27,0,0-2,10.8-2,38.2s2,38.2,2,38.2c2.2,12.2,13.8,24.2,25.8,27l8.4,2A89.46,89.46,0,0,1,526,829.13h0l-2.4,8.4c-3.6,11.6,1,27.8,10.4,35.8,0,0,8.4,7.2,32.2,20.8,23.8,13.8,34,17.4,34,17.4,11.6,4.2,27.8.2,36.2-8.8l6-6.4a89.43,89.43,0,0,1,123.2,0h0l6,6.4c8.4,9,24.6,13,36.2,8.8,0,0,10.4-3.8,34.2-17.4,23.8-13.8,32.2-20.8,32.2-20.8,9.4-7.8,14-24,10.4-35.8l-2.6-8.6a89.37,89.37,0,0,1,61.8-106.4h0l8.4-2c11.8-2.8,23.6-14.8,25.8-27,0,0,2-10.8,2-38.2-.6-28-2.4-38.8-2.4-38.8ZM703.9,764.93a109.9,109.9,0,1,1,110-109.8,110.07,110.07,0,0,1-110,109.8Z"/></g></g></svg>