<svg xmlns="http://www.w3.org/2000/svg" fill="black" width="24" height="24"><rect id="backgroundrect" width="100%" height="100%" x="0" y="0" fill="none" stroke="none"/><g class="currentLayer" style=""><title>Layer 1</title><path d="M0 0h24v24H0V0z" fill="none" id="svg_1"/><circle cx="15.5" cy="9.5" r="1.5" id="svg_2" class="" fill-opacity="1" fill="#f8951e"/><circle cx="8.5" cy="9.5" r="1.5" id="svg_3" class="" fill-opacity="1" fill="#f8951e"/><path d="M11.99,1.8809523731470108 C6.47,1.8809523731470108 2,6.360952373147011 2,11.88095237314701 s4.47,10 9.99,10 C17.52,21.88095237314701 22,17.40095237314701 22,11.88095237314701 S17.52,1.8809523731470108 11.99,1.8809523731470108 zM12,19.88095237314701 c-4.42,0 -8,-3.58 -8,-8 s3.58,-8 8,-8 s8,3.58 8,8 s-3.58,8 -8,8 zm0,-6 c-2.33,0 -4.32,1.45 -5.12,3.5 h1.6700000000000002 c0.6900000000000002,-1.19 1.97,-2 3.45,-2 s2.75,0.81 3.45,2 h1.6700000000000002 c-0.8,-2.05 -2.79,-3.5 -5.12,-3.5 z" id="svg_4" class="" fill="#f9951e" fill-opacity="1"/></g></svg>