<svg xmlns="http://www.w3.org/2000/svg" viewBox="0 0 157.5 109.01"><defs><style>.cls-1{fill:#fff;}</style></defs><g id="Layer_2" data-name="Layer 2"><g id="Layer_1-2" data-name="Layer 1"><g id="Layer_2-2" data-name="Layer 2"><g id="Layer_1-2-2" data-name="Layer 1-2"><path class="cls-1" d="M154.11,17a19.58,19.58,0,0,0-13.9-13.8C127.91,0,78.71,0,78.71,0s-48.3-.2-60.6,3C11.31,4.8,4.81,10.3,3,17-.29,29.2,0,54.5,0,54.5S-.29,79.8,3,92c1.8,6.7,8.4,12.2,15.1,14,12.3,3.3,60.6,3,60.6,3s48.3.2,60.6-3c6.8-1.8,13.1-7.3,14.9-14,3.29-12.1,3.29-37.5,3.29-37.5S157.41,29.2,154.11,17ZM63.61,78.7V30.3l39.3,24.2Z"/></g></g></g></g></svg>